<svg width="720" height="200" viewBox="0 0 720 200" fill="none" xmlns="http://www.w3.org/2000/svg">
<rect width="720" height="200" rx="18" fill="#007BFE"/>
<path d="M121.409 120H145.432V116.659H125.128V101.287H143.781V97.946H125.128V82.6136H145.034V79.2727H121.409V120ZM176.773 89.4545H180.372C180.094 83.2699 174.744 78.696 167.168 78.696C159.651 78.696 153.864 83.2102 153.864 89.7727C153.864 95.0028 157.562 98.2841 163.946 100.173L168.818 101.605C173.869 103.077 177.33 104.966 177.33 109.122C177.33 114.014 172.895 117.295 166.81 117.295C161.321 117.295 157.026 114.651 156.628 109.818H152.81C153.247 116.261 158.497 120.696 166.81 120.696C175.639 120.696 180.929 115.705 180.929 109.182C180.929 102.42 175.043 99.7159 169.872 98.2642L165.577 97.0312C161.619 95.9176 157.463 93.9091 157.463 89.6136C157.463 85.2386 161.381 82.0369 167.068 82.0369C172.457 82.0369 176.315 84.9205 176.773 89.4545ZM187.412 82.6136H200.318V120H204.037V82.6136H216.943V79.2727H187.412V82.6136ZM252.46 79.2727V105.98C252.46 112.463 247.847 117.196 240.747 117.196C233.648 117.196 229.034 112.463 229.034 105.98V79.2727H225.315V106.239C225.295 114.551 231.58 120.696 240.747 120.696C249.935 120.696 256.179 114.551 256.179 106.239V79.2727H252.46ZM278.919 120C291.169 120 298.149 112.344 298.169 99.5369C298.169 86.8693 291.288 79.2727 279.635 79.2727H266.987V120H278.919ZM270.706 116.659V82.6136H279.416C289.3 82.6136 294.55 88.9972 294.57 99.5369C294.57 110.176 289.2 116.659 278.7 116.659H270.706ZM340.572 99.6364C340.572 86.8892 333.254 78.7159 322.952 78.7159C312.671 78.7159 305.353 86.9091 305.353 99.6364C305.353 112.364 312.651 120.557 322.952 120.557C333.254 120.557 340.572 112.384 340.572 99.6364ZM336.952 99.6364C336.972 110.594 330.987 117.057 322.952 117.057C314.898 117.057 308.952 110.554 308.952 99.6364C308.952 88.6591 314.958 82.2159 322.952 82.2159C330.987 82.2159 336.952 88.679 336.952 99.6364ZM382.214 91.483H391.64C391.56 83.8665 385.495 78.7159 376.029 78.7159C366.722 78.7159 360.021 83.7869 360.08 91.3636C360.06 97.5483 364.396 101.028 371.435 102.639L375.691 103.634C380.165 104.668 382.174 105.881 382.214 108.168C382.174 110.653 379.847 112.384 375.89 112.384C371.535 112.384 368.671 110.355 368.452 106.438H359.026C359.146 115.963 365.768 120.517 376.009 120.517C386.151 120.517 392.157 115.923 392.197 108.188C392.157 101.685 387.762 97.7074 379.728 95.9375L376.228 95.142C372.529 94.3466 370.183 93.1136 370.262 90.6875C370.282 88.4602 372.191 86.8494 376.009 86.8494C379.847 86.8494 381.955 88.5795 382.214 91.483ZM434.137 94.0284C433.143 84.2841 425.884 78.7159 416.04 78.7159C405.183 78.7159 396.731 86.1733 396.731 99.6364C396.731 113.04 404.984 120.557 416.04 120.557C427.217 120.557 433.401 112.96 434.137 105.741L424.194 105.682C423.498 109.599 420.555 111.926 416.239 111.926C410.433 111.926 406.773 107.73 406.773 99.6364C406.773 91.8608 410.353 87.3466 416.299 87.3466C420.773 87.3466 423.697 89.9517 424.194 94.0284H434.137ZM439.77 120H449.614V106.06H454.665L462.102 120H472.841L464.389 104.489C468.864 102.46 471.449 98.4631 471.449 92.8352C471.449 84.4631 465.741 79.2727 456.594 79.2727H439.77V120ZM449.614 98.304V87.2074H454.466C458.881 87.2074 461.247 89.0568 461.247 92.8352C461.247 96.6136 458.881 98.304 454.466 98.304H449.614ZM486.692 79.2727H476.848V120H486.692V79.2727ZM492.871 120H502.715V107.352H509.397C518.724 107.352 524.55 101.824 524.55 93.3722C524.55 85 518.843 79.2727 509.695 79.2727H492.871V120ZM502.715 99.5966V87.2074H507.567C511.982 87.2074 514.349 89.5938 514.349 93.3722C514.349 97.1307 511.982 99.5966 507.567 99.5966H502.715ZM528.07 87.267H540.44V120H550.144V87.267H562.494V79.2727H528.07V87.267ZM589.315 91.483H598.741C598.662 83.8665 592.597 78.7159 583.131 78.7159C573.824 78.7159 567.122 83.7869 567.182 91.3636C567.162 97.5483 571.497 101.028 578.537 102.639L582.793 103.634C587.267 104.668 589.276 105.881 589.315 108.168C589.276 110.653 586.949 112.384 582.991 112.384C578.636 112.384 575.773 110.355 575.554 106.438H566.128C566.247 115.963 572.869 120.517 583.111 120.517C593.253 120.517 599.259 115.923 599.298 108.188C599.259 101.685 594.864 97.7074 586.83 95.9375L583.33 95.142C579.631 94.3466 577.284 93.1136 577.364 90.6875C577.384 88.4602 579.293 86.8494 583.111 86.8494C586.949 86.8494 589.057 88.5795 589.315 91.483Z" fill="white"/>
</svg>
